<?xml version="1.0" encoding="utf-8"?>
<!-- Generator: Adobe Illustrator 28.3.0, SVG Export Plug-In . SVG Version: 6.00 Build 0)  -->
<svg version="1.1" id="_Слой_2" xmlns="http://www.w3.org/2000/svg" xmlns:xlink="http://www.w3.org/1999/xlink" x="0px"
	 y="0px" viewBox="0 0 109.4 109.3" style="enable-background:new 0 0 109.4 109.3;" xml:space="preserve">
<style type="text/css">
	.st0{fill:#FFFFFF;}
	.st1{fill:none;stroke:#FFFFFF;stroke-width:4;stroke-miterlimit:10;}
</style>
<g id="_Слой_1-2">
	<g id="EmmIsL">
		<path class="st0" d="M35,79.2c-1.5-1.5-2.7-2.7-4.1-4.1c6.6-6.8,13.1-13.6,19.7-20.4c-6.6-6.8-13.1-13.6-19.8-20.4
			c1.4-1.3,2.6-2.5,4-3.8c6.4,6.7,13,13.4,19.5,20.3c6.7-7,13.2-13.7,19.9-20.7c1.4,1.6,2.5,2.9,3.6,4.1c-6.4,6.6-13,13.3-19.5,20.1
			c6.9,7,13.4,13.7,20.2,20.5c-1.7,1.5-3,2.7-4.3,4c-6.3-6.6-12.8-13.3-19.3-20.1C48.2,65.6,41.6,72.4,35,79.2L35,79.2z"/>
	</g>
</g>
<path class="st1" d="M84,103.9H25.4c-11,0-19.9-8.9-19.9-19.9V25.3c0-11,8.9-19.9,19.9-19.9H84c11,0,19.9,8.9,19.9,19.9V84
	C104,95,95,103.9,84,103.9z"/>
</svg>
